<svg width="145" height="45" viewBox="0 0 145 45" fill="none" xmlns="http://www.w3.org/2000/svg">
<rect x="0.5" y="0.5" width="144" height="44" rx="6.5" fill="white"/>
<rect x="0.5" y="0.5" width="144" height="44" rx="6.5" stroke="black"/>
<path d="M32.1101 20.125C32.0305 19.8485 31.9188 19.6042 31.7749 19.392C31.6309 19.1761 31.4548 18.9943 31.2464 18.8466C31.0419 18.6951 30.8071 18.5795 30.5419 18.5C30.2805 18.4205 29.9908 18.3807 29.6726 18.3807C29.0779 18.3807 28.5552 18.5284 28.1044 18.8239C27.6574 19.1193 27.3089 19.5492 27.0589 20.1136C26.8089 20.6742 26.6839 21.3598 26.6839 22.1705C26.6839 22.9811 26.8071 23.6705 27.0533 24.2386C27.2995 24.8068 27.648 25.2405 28.0987 25.5398C28.5495 25.8352 29.0817 25.983 29.6953 25.983C30.2521 25.983 30.7275 25.8845 31.1214 25.6875C31.5192 25.4867 31.8222 25.2045 32.0305 24.8409C32.2427 24.4773 32.3487 24.0473 32.3487 23.5511L32.8487 23.625H29.8487V21.7727H34.718V23.2386C34.718 24.2614 34.5021 25.1402 34.0703 25.875C33.6385 26.6061 33.0438 27.1705 32.2862 27.5682C31.5286 27.9621 30.6612 28.1591 29.6839 28.1591C28.593 28.1591 27.6347 27.9186 26.8089 27.4375C25.9832 26.9527 25.3393 26.2652 24.8771 25.375C24.4188 24.4811 24.1896 23.4205 24.1896 22.1932C24.1896 21.25 24.326 20.4091 24.5987 19.6705C24.8752 18.928 25.2616 18.2992 25.7578 17.7841C26.254 17.2689 26.8317 16.8769 27.4908 16.608C28.1499 16.339 28.8639 16.2045 29.6328 16.2045C30.2919 16.2045 30.9055 16.3011 31.4737 16.4943C32.0419 16.6837 32.5457 16.9527 32.9851 17.3011C33.4283 17.6496 33.79 18.0644 34.0703 18.5455C34.3506 19.0227 34.5305 19.5492 34.6101 20.125H32.1101ZM40.4979 28.1705C39.6001 28.1705 38.8274 27.9886 38.1797 27.625C37.5357 27.2576 37.0395 26.7386 36.6911 26.0682C36.3426 25.3939 36.1683 24.5966 36.1683 23.6761C36.1683 22.7784 36.3426 21.9905 36.6911 21.3125C37.0395 20.6345 37.5301 20.1061 38.1626 19.7273C38.799 19.3485 39.5452 19.1591 40.4013 19.1591C40.977 19.1591 41.513 19.2519 42.0092 19.4375C42.5092 19.6193 42.9448 19.8939 43.3161 20.2614C43.6911 20.6288 43.9827 21.0909 44.1911 21.6477C44.3994 22.2008 44.5036 22.8485 44.5036 23.5909V24.2557H37.1342V22.7557H42.2251C42.2251 22.4072 42.1494 22.0985 41.9979 21.8295C41.8464 21.5606 41.6361 21.3504 41.3672 21.1989C41.102 21.0436 40.7933 20.9659 40.4411 20.9659C40.0736 20.9659 39.7479 21.0511 39.4638 21.2216C39.1835 21.3883 38.9638 21.6136 38.8047 21.8977C38.6456 22.178 38.5642 22.4905 38.5604 22.8352V24.2614C38.5604 24.6932 38.6399 25.0663 38.799 25.3807C38.9619 25.6951 39.1911 25.9375 39.4865 26.108C39.782 26.2784 40.1323 26.3636 40.5376 26.3636C40.8066 26.3636 41.0528 26.3258 41.2763 26.25C41.4998 26.1742 41.6911 26.0606 41.8501 25.9091C42.0092 25.7576 42.1304 25.572 42.2138 25.3523L44.4524 25.5C44.3388 26.0379 44.1058 26.5076 43.7536 26.9091C43.4051 27.3068 42.9543 27.6174 42.4013 27.8409C41.852 28.0606 41.2176 28.1705 40.4979 28.1705ZM50.7251 19.2727V21.0909H45.4695V19.2727H50.7251ZM46.6626 17.1818H49.0831V25.3182C49.0831 25.5417 49.1172 25.7159 49.1854 25.8409C49.2536 25.9621 49.3482 26.0473 49.4695 26.0966C49.5945 26.1458 49.7384 26.1705 49.9013 26.1705C50.0149 26.1705 50.1286 26.161 50.2422 26.142C50.3558 26.1193 50.4429 26.1023 50.5036 26.0909L50.8842 27.892C50.763 27.9299 50.5926 27.9735 50.3729 28.0227C50.1532 28.0758 49.8861 28.108 49.5717 28.1193C48.9884 28.142 48.477 28.0644 48.0376 27.8864C47.602 27.7083 47.263 27.4318 47.0206 27.0568C46.7782 26.6818 46.6589 26.2083 46.6626 25.6364V17.1818ZM56.005 28V19.2727H58.4254V28H56.005ZM57.2209 18.1477C56.861 18.1477 56.5523 18.0284 56.2947 17.7898C56.041 17.5473 55.9141 17.2576 55.9141 16.9205C55.9141 16.5871 56.041 16.3011 56.2947 16.0625C56.5523 15.8201 56.861 15.6989 57.2209 15.6989C57.5807 15.6989 57.8875 15.8201 58.1413 16.0625C58.3989 16.3011 58.5277 16.5871 58.5277 16.9205C58.5277 17.2576 58.3989 17.5473 58.1413 17.7898C57.8875 18.0284 57.5807 18.1477 57.2209 18.1477ZM62.7848 22.9545V28H60.3643V19.2727H62.6712V20.8125H62.7734C62.9666 20.3049 63.2905 19.9034 63.745 19.608C64.1996 19.3087 64.7507 19.1591 65.3984 19.1591C66.0045 19.1591 66.5329 19.2917 66.9837 19.5568C67.4344 19.822 67.7848 20.2008 68.0348 20.6932C68.2848 21.1818 68.4098 21.7652 68.4098 22.4432V28H65.9893V22.875C65.9931 22.3409 65.8568 21.9242 65.5803 21.625C65.3037 21.322 64.9231 21.1705 64.4382 21.1705C64.1125 21.1705 63.8246 21.2405 63.5746 21.3807C63.3284 21.5208 63.1352 21.7254 62.995 21.9943C62.8587 22.2595 62.7886 22.5795 62.7848 22.9545ZM73.6229 18.392V16.3636H83.1797V18.392H79.6172V28H77.1854V18.392H73.6229ZM87.3857 28.1705C86.5031 28.1705 85.7398 27.983 85.0959 27.608C84.4557 27.2292 83.9614 26.7027 83.6129 26.0284C83.2644 25.3504 83.0902 24.5644 83.0902 23.6705C83.0902 22.7689 83.2644 21.9811 83.6129 21.3068C83.9614 20.6288 84.4557 20.1023 85.0959 19.7273C85.7398 19.3485 86.5031 19.1591 87.3857 19.1591C88.2682 19.1591 89.0296 19.3485 89.6697 19.7273C90.3137 20.1023 90.8099 20.6288 91.1584 21.3068C91.5069 21.9811 91.6811 22.7689 91.6811 23.6705C91.6811 24.5644 91.5069 25.3504 91.1584 26.0284C90.8099 26.7027 90.3137 27.2292 89.6697 27.608C89.0296 27.983 88.2682 28.1705 87.3857 28.1705ZM87.397 26.2955C87.7985 26.2955 88.1338 26.1818 88.4027 25.9545C88.6716 25.7235 88.8743 25.4091 89.0107 25.0114C89.1508 24.6136 89.2209 24.161 89.2209 23.6534C89.2209 23.1458 89.1508 22.6932 89.0107 22.2955C88.8743 21.8977 88.6716 21.5833 88.4027 21.3523C88.1338 21.1212 87.7985 21.0057 87.397 21.0057C86.9917 21.0057 86.6508 21.1212 86.3743 21.3523C86.1016 21.5833 85.8951 21.8977 85.755 22.2955C85.6186 22.6932 85.5504 23.1458 85.5504 23.6534C85.5504 24.161 85.6186 24.6136 85.755 25.0114C85.8951 25.4091 86.1016 25.7235 86.3743 25.9545C86.6508 26.1818 86.9917 26.2955 87.397 26.2955ZM98.8516 24.2841V19.2727H101.272V28H98.9482V26.4148H98.8572C98.6603 26.9261 98.3326 27.3371 97.8743 27.6477C97.4197 27.9583 96.8648 28.1136 96.2095 28.1136C95.6262 28.1136 95.1129 27.9811 94.6697 27.7159C94.2266 27.4508 93.88 27.0739 93.63 26.5852C93.3838 26.0966 93.2588 25.5114 93.255 24.8295V19.2727H95.6754V24.3977C95.6792 24.9129 95.8175 25.3201 96.0902 25.6193C96.3629 25.9186 96.7285 26.0682 97.1868 26.0682C97.4785 26.0682 97.7512 26.0019 98.005 25.8693C98.2588 25.733 98.4633 25.5322 98.6186 25.267C98.7777 25.0019 98.8554 24.6742 98.8516 24.2841ZM107.151 28.1705C106.257 28.1705 105.488 27.9811 104.844 27.6023C104.204 27.2197 103.712 26.6894 103.367 26.0114C103.026 25.3333 102.856 24.553 102.856 23.6705C102.856 22.7765 103.028 21.9924 103.373 21.3182C103.721 20.6402 104.216 20.1117 104.856 19.733C105.496 19.3504 106.257 19.1591 107.14 19.1591C107.901 19.1591 108.568 19.2973 109.14 19.5739C109.712 19.8504 110.165 20.2386 110.498 20.7386C110.831 21.2386 111.015 21.8258 111.049 22.5H108.765C108.701 22.0644 108.53 21.714 108.254 21.4489C107.981 21.1799 107.623 21.0455 107.18 21.0455C106.805 21.0455 106.477 21.1477 106.197 21.3523C105.92 21.553 105.704 21.8466 105.549 22.233C105.394 22.6193 105.316 23.0871 105.316 23.6364C105.316 24.1932 105.392 24.6667 105.543 25.0568C105.699 25.447 105.916 25.7443 106.197 25.9489C106.477 26.1534 106.805 26.2557 107.18 26.2557C107.456 26.2557 107.704 26.1989 107.924 26.0852C108.147 25.9716 108.331 25.8068 108.475 25.5909C108.623 25.3712 108.719 25.108 108.765 24.8011H111.049C111.011 25.4678 110.829 26.0549 110.504 26.5625C110.182 27.0663 109.737 27.4602 109.168 27.7443C108.6 28.0284 107.928 28.1705 107.151 28.1705ZM115.019 22.9545V28H112.599V16.3636H114.951V20.8125H115.053C115.25 20.2973 115.568 19.8939 116.008 19.6023C116.447 19.3068 116.998 19.1591 117.661 19.1591C118.267 19.1591 118.796 19.2917 119.246 19.5568C119.701 19.8182 120.053 20.1951 120.303 20.6875C120.557 21.1761 120.682 21.7614 120.678 22.4432V28H118.258V22.875C118.262 22.3371 118.125 21.9186 117.849 21.6193C117.576 21.3201 117.193 21.1705 116.701 21.1705C116.371 21.1705 116.08 21.2405 115.826 21.3807C115.576 21.5208 115.379 21.7254 115.235 21.9943C115.095 22.2595 115.023 22.5795 115.019 22.9545Z" fill="#272643"/>
</svg>
