<svg width="45" height="45" viewBox="0 0 45 45" fill="none" xmlns="http://www.w3.org/2000/svg">
<rect width="45" height="45" rx="22.5" fill="white"/>
<path d="M22.1936 25.7489C21.7539 26.44 21.3321 27.1161 20.3868 27.7729C19.8811 28.1273 18.7173 28.8198 17.063 28.8198C13.9068 28.8198 11.3594 26.5252 11.3594 22.4911C11.3594 18.9653 13.7557 16.1802 17.1303 16.1802C18.4975 16.1802 19.7121 16.6528 20.6067 17.3618C21.4339 18.0199 21.8213 18.6782 22.1593 19.269L19.7973 20.4492C19.6283 20.0617 19.4249 19.6564 18.9028 19.2181C18.3285 18.7619 17.7555 18.6273 17.2649 18.6273C15.3413 18.6273 14.3287 20.4163 14.3287 22.4072C14.3287 25.0234 15.6628 26.3219 17.2649 26.3219C18.8176 26.3219 19.4428 25.2419 19.8468 24.5508L22.1936 25.749V25.7489ZM30.468 16.5512H33.6406L29.5062 28.4654H26.4696L22.386 16.5512H25.5586L28.0222 25.0234L30.468 16.5512Z" fill="black"/>
</svg>
