<svg width="45" height="45" viewBox="0 0 45 45" fill="none" xmlns="http://www.w3.org/2000/svg">
<rect width="45" height="45" rx="22.5" fill="white"/>
<g clip-path="url(#clip0_3552_238)">
<path d="M22.5 12.2599C16.6994 12.2599 12 16.9633 12 22.7599C12 27.4016 15.0082 31.3358 19.1774 32.7238C19.7044 32.8229 19.8947 32.498 19.8947 32.2172C19.8947 31.9678 19.8888 31.3082 19.8848 30.4328C16.9626 31.0654 16.347 29.0212 16.347 29.0212C15.8686 27.8111 15.1782 27.4862 15.1782 27.4862C14.228 26.8372 15.2537 26.851 15.2537 26.851C16.3063 26.9225 16.8602 27.9305 16.8602 27.9305C17.7967 29.537 19.3172 29.0724 19.919 28.802C20.0108 28.1254 20.2845 27.6602 20.5824 27.4009C18.2514 27.1378 15.8003 26.2354 15.8003 22.212C15.8003 21.0629 16.2072 20.1271 16.8799 19.3921C16.7637 19.1289 16.408 18.0592 16.9724 16.6128C16.9724 16.6128 17.8511 16.3326 19.8599 17.6897C20.7156 17.457 21.5981 17.3377 22.4849 17.3347C23.3774 17.3406 24.2692 17.4574 25.1099 17.6897C27.1069 16.3326 27.9849 16.6128 27.9849 16.6128C28.5487 18.0592 28.193 19.1282 28.0906 19.3921C28.7567 20.1271 29.1636 21.0635 29.1636 22.212C29.1636 26.2446 26.7092 27.1338 24.3756 27.3904C24.7404 27.7048 25.0823 28.3512 25.0823 29.3323C25.0823 30.7367 25.0692 31.868 25.0692 32.2099C25.0692 32.4829 25.253 32.8111 25.7937 32.7054C29.9937 31.3319 32.9987 27.3944 32.9987 22.7593C32.9987 16.9626 28.2993 12.2593 22.4987 12.2593L22.5 12.2599Z" fill="black"/>
</g>
<defs>
<clipPath id="clip0_3552_238">
<rect width="21" height="21" fill="white" transform="translate(12 12)"/>
</clipPath>
</defs>
</svg>
