<svg width="45" height="45" viewBox="0 0 45 45" fill="none" xmlns="http://www.w3.org/2000/svg">
<rect width="45" height="45" rx="22.5" fill="white"/>
<g clip-path="url(#clip0_3552_234)">
<path d="M17.5016 31.7306H13.3153V18.2494H17.5016V31.7306ZM15.406 16.4104C14.0675 16.4104 12.9814 15.3013 12.9814 13.9628C12.9814 13.3198 13.2369 12.7031 13.6916 12.2485C14.1463 11.7938 14.7629 11.5383 15.406 11.5383C16.049 11.5383 16.6657 11.7938 17.1204 12.2485C17.575 12.7031 17.8305 13.3198 17.8305 13.9628C17.8305 15.3013 16.7444 16.4104 15.406 16.4104ZM33.1694 31.7306H28.9925V25.1681C28.9925 23.604 28.9608 21.5984 26.8161 21.5984C24.6396 21.5984 24.3057 23.2975 24.3057 25.0556V31.7306H20.1238V18.2494H24.1384V20.0883H24.1968C24.7557 19.029 26.1209 17.9112 28.1574 17.9112C32.3942 17.9112 33.173 20.7013 33.173 24.3251V31.7306H33.1694Z" fill="black"/>
</g>
<defs>
<clipPath id="clip0_3552_234">
<rect width="23.0769" height="23.0769" fill="white" transform="translate(11.5391 11.5383)"/>
</clipPath>
</defs>
</svg>
